<svg xmlns="http://www.w3.org/2000/svg" viewBox="0 0 119 26"><defs><style>.a,.b{fill:#fff;fill-rule:evenodd;}.a{opacity:0.749;}</style></defs><path class="a" d="M113,26H6a6,6,0,0,1-6-6V6A6,6,0,0,1,6,0H113a6,6,0,0,1,6,6V20A6,6,0,0,1,113,26Zm5-20a5,5,0,0,0-5-5H6A5,5,0,0,0,1,6V20a5,5,0,0,0,5,5H113a5,5,0,0,0,5-5Z"/><path class="b" d="M60.7,18.437H59.4l1.01-2.494L58.4,10.871h1.379l1.263,3.452,1.273-3.452h1.379Zm-5.01-2.178a2.185,2.185,0,0,1-1.336-.5v.369H53.007V8.566h1.347v2.663a2.239,2.239,0,0,1,1.336-.484A2.471,2.471,0,0,1,58.068,13.5,2.472,2.472,0,0,1,55.69,16.259ZM55.406,11.9a1.487,1.487,0,0,0-1.052.474v2.252a1.489,1.489,0,0,0,1.052.473c.758,0,1.284-.652,1.284-1.6S56.164,11.9,55.406,11.9Zm-7.852,3.862a2.14,2.14,0,0,1-1.336.5A2.477,2.477,0,0,1,43.84,13.5a2.477,2.477,0,0,1,2.378-2.757,2.193,2.193,0,0,1,1.336.484V8.566h1.358v7.567H47.554Zm0-3.388a1.446,1.446,0,0,0-1.041-.474c-.769,0-1.3.653-1.3,1.6s.526,1.6,1.3,1.6a1.449,1.449,0,0,0,1.041-.473ZM39.535,13.87a1.5,1.5,0,0,0,1.6,1.347,3.226,3.226,0,0,0,1.568-.495v1.127a4.3,4.3,0,0,1-1.789.41,2.639,2.639,0,0,1-2.7-2.8,2.563,2.563,0,0,1,2.6-2.715,2.372,2.372,0,0,1,2.315,2.63,4.154,4.154,0,0,1-.021.495Zm1.221-2.084A1.232,1.232,0,0,0,39.535,13h2.294A1.141,1.141,0,0,0,40.756,11.786Zm-4.768.832v3.515H34.641V10.871h1.347V11.4a1.782,1.782,0,0,1,1.294-.652,1.586,1.586,0,0,1,.442.052V12a1.77,1.77,0,0,0-.473-.063A1.66,1.66,0,0,0,35.988,12.618ZM29.979,13.87a1.5,1.5,0,0,0,1.6,1.347,3.229,3.229,0,0,0,1.568-.495v1.127a4.3,4.3,0,0,1-1.789.41,2.639,2.639,0,0,1-2.7-2.8,2.563,2.563,0,0,1,2.6-2.715,2.372,2.372,0,0,1,2.315,2.63,4.154,4.154,0,0,1-.021.495Zm1.22-2.084A1.232,1.232,0,0,0,29.979,13h2.294A1.142,1.142,0,0,0,31.2,11.786Zm-5.925,4.347L24.2,12.555l-1.063,3.578h-1.21l-1.81-5.262h1.347l1.063,3.578,1.063-3.578h1.22l1.063,3.578,1.063-3.578h1.347l-1.8,5.262Zm-8.231.126A2.631,2.631,0,0,1,14.328,13.5a2.624,2.624,0,0,1,2.715-2.757,2.617,2.617,0,0,1,2.7,2.757A2.623,2.623,0,0,1,17.043,16.259Zm0-4.388c-.789,0-1.336.663-1.336,1.631s.547,1.631,1.336,1.631,1.326-.663,1.326-1.631S17.822,11.871,17.043,11.871Zm-5.915,1.662H9.918v2.6H8.571V8.892h2.557a2.329,2.329,0,1,1,0,4.641Zm-.189-3.546H9.918v2.452h1.021a1.23,1.23,0,1,0,0-2.452Z"/><path class="b" d="M111.116,14.051h-5.559c.127,1.331,1.1,1.723,2.209,1.723a6.007,6.007,0,0,0,2.789-.628v2.287a6.358,6.358,0,0,1-3.147.736c-2.766,0-4.7-1.732-4.7-5.156,0-2.892,1.644-5.188,4.345-5.188s4.1,2.3,4.1,5.2C111.154,13.3,111.129,13.9,111.116,14.051Zm-4.085-3.911c-.71,0-1.5.536-1.5,1.815h2.936C108.468,10.677,107.728,10.14,107.031,10.14Zm-8.923,8.029a3.183,3.183,0,0,1-2.009-.718l-.006,3.213-2.839.6V8.014h2.5l.148.7a3.18,3.18,0,0,1,2.224-.89c1.994,0,3.872,1.8,3.872,5.1C102,16.535,100.139,18.169,98.108,18.169Zm-.662-7.829a1.713,1.713,0,0,0-1.356.563l.017,4.219a1.7,1.7,0,0,0,1.339.539c1.05,0,1.754-1.143,1.754-2.672C99.2,11.5,98.485,10.34,97.446,10.34Zm-8.3-2.326H92v9.952h-2.85Zm0-3.178L92,4.23V6.543l-2.85.606ZM86.11,11.219v6.747H83.272V8.014h2.455l.178.839a1.936,1.936,0,0,1,2.37-.838v2.61A2.017,2.017,0,0,0,86.11,11.219Zm-6.086,3.256c0,1.673,1.792,1.152,2.155,1.007v2.311a4.378,4.378,0,0,1-1.992.376,2.861,2.861,0,0,1-2.95-2.922l.013-9.109,2.772-.59,0,2.466H82.18v2.421H80.024Zm-3.539.484c0,2.044-1.627,3.21-3.988,3.21a7.884,7.884,0,0,1-3.105-.644V14.814a7.158,7.158,0,0,0,3.108.907c.633,0,1.089-.17,1.089-.695,0-1.355-4.316-.845-4.316-3.988,0-2.01,1.535-3.213,3.838-3.213a7.508,7.508,0,0,1,2.822.519v2.675a6.357,6.357,0,0,0-2.824-.731c-.6,0-.965.172-.965.615C72.144,12.181,76.485,11.573,76.485,14.959Z"/></svg>